# xmcd
#
# Track frame offsets:
#	150
#	16235
#	30332
#	43127
#	55440
#	67012
#	80962
#	94510
#	106215
#	114832
#	129167
#	140185
#	151487
#	166675
#	177460
#	189682
#	201700
#	212822
#	226392
#	240347
#
# Disc length: 3361 seconds
#
# Revision: 0
# Processed by: cddbd v1.5.1PL0 Copyright (c) Steve Scherf et al.
# Submitted via: dBpowerAMP V4.0
#
DISCID=190d1f14
DTITLE=Various Artist - The Irish Showband Collection Disc2
DYEAR=1900
DGENRE=Country
TTITLE0=Quick Joey Small (Run Joey Run) - The Real McCoy
TTITLE1=I Gave My Wedding Dress Away - Eileen Ried and the Cadets
TTITLE2=He's Got You - Brendan O'Brien and the Dixies
TTITLE3=Foolin' Time - Butch Moore and the Capitol
TTITLE4=Wishing It Was You - Dickie Rock and the Miami
TTITLE5=Anything That's Part Of You - Tony Keeling and the Graduates
TTITLE6=More Than Yesterday - Gregory and the Cadets
TTITLE7=No One Will Ever Know - Sonny Knowles and the Pacific
TTITLE8=It Doesn't Matter Anymore - Brendan O'Brien and the Dixies
TTITLE9=The Irish Soldier - Pat Lynch and the Airchords
TTITLE10=Streets Of Baltimore - Des Kelly and the Capitol
TTITLE11=Wonderful World Of My Dreams - Sean Dunphy and the Hoedowners
TTITLE12=Just To See You Smile - The Freshmen
TTITLE13=The Jolly Tinker - Joe Dolan and the Drifters
TTITLE14=I Only Came To Dance With You - Sonny and Sean and the Pacific
TTITLE15=Young Love - Donnie Collins Showband featuring Chris Grace
TTITLE16=Walking The Streets In The rain - Butch Moore
TTITLE17=Save The Last Dance for Me - Brendan O'Brien and the Dixies
TTITLE18=Bonny Irish Boy - Margo and the Keynotes
TTITLE19=Ring Of Fire - Gerry and the Ohio
EXTD=
EXTT0=
EXTT1=
EXTT2=
EXTT3=
EXTT4=
EXTT5=
EXTT6=
EXTT7=
EXTT8=
EXTT9=
EXTT10=
EXTT11=
EXTT12=
EXTT13=
EXTT14=
EXTT15=
EXTT16=
EXTT17=
EXTT18=
EXTT19=
PLAYORDER=
